<svg clip-rule="evenodd" fill-rule="evenodd" height="8.467mm" image-rendering="optimizeQuality" shape-rendering="geometricPrecision" text-rendering="geometricPrecision" viewBox="0 0 846.66 846.66" width="8.467mm" xmlns="http://www.w3.org/2000/svg"><g id="Layer_x0020_1"><path d="m162.49 531.28v132.53c9.17 0 20.81-1.13 27.86 1.91l202.34 79.54 272.1-159.41c13.53-7.92 10.38-54.32-31.4-30.04l-97.49 54.99c-.53 33.88-16.58 51.57-56.04 51.57h-105.76c-4.51 0-7.92.06-12.34-2.07l-109.27-52.8c-24.1-11.64-6.42-48.22 17.66-36.59l104.99 50.73c.07.01 116.92 1.44 118.91-1.59.83-1.25 1.2-3.92 1.3-7.71l-259.03-116.25-73.83 35.19zm447.85-180.71 73.83-35.19v-132.53c-9.17 0-20.81 1.12-27.86-1.91l-202.34-79.54-272.1 159.4c-13.53 7.93-10.38 54.33 31.4 30.05l97.49-55.19c.58-33.78 16.71-51.37 56.04-51.37h102.3c5.61.04 10.56-.46 15.8 2.07l109.27 52.8c24.1 11.63 6.42 48.22-17.66 36.59l-104.99-50.73c-.07-.02-116.92-1.44-118.91 1.58-.83 1.25-1.2 3.93-1.3 7.71zm-87.94 5.03c-12.61 93.58-125.91 140.22-201.67 89.45-44.6-29.88-66.09-85.14-54.38-137.57-34.51 19.48-70.54 45.98-106.17 21.65-34.4-23.5-35.74-81.7 1.17-103.33l279.58-163.79c5.34-3.58 12.29-4.58 18.73-2.06l209.03 82.17h15.48v-14.49c0-11.24 9.12-20.36 20.37-20.36h113.86c11.25 0 20.37 9.12 20.37 20.36v235.45c0 11.24-9.12 20.36-20.37 20.36h-113.86c-12.58 0-20.37-9.41-20.37-22.96l-58.98 28.11c-7.62 3.63-13.84 6.91-22.8 2.91zm-189.85-85.22c-45.29 41.38-33.49 108.96 8.69 139.39 55.83 40.28 143.17-2.01 141.47-71.99zm392.35 72.33h73.14v-194.71h-73.14zm-603.14 161.23h-73.14v194.72h73.14zm-93.5-40.72h113.86c12.58 0 20.37 9.41 20.37 22.96l62.22-29.65c6.49-3.1 12.26-4.63 19.56-1.37l270.12 121.24 98.64-55.75c86.79-52.07 132.84 64.73 72.28 100.21l-279.58 163.79c-5.34 3.58-12.29 4.58-18.73 2.06l-209.03-82.18h-15.48v14.49c0 11.25-9.12 20.37-20.37 20.37h-113.86c-11.25 0-20.37-9.12-20.37-20.37v-235.44c0-11.25 9.12-20.36 20.37-20.36z" fill-rule="nonzero"/></g></svg>